#!OML:ASF X:\für Bonn\!DataBase\2005_08_12_Daniel\c3d\Daniel.ASF
:FULLY-SPECIFIED
:DEGREES
47
root -16.8199 16.2018 0.0998727 -40.7914 83.9166 -415.873
lowerback 30.6931 -1.02901 5.09265
upperback 6.39671 0.72487 -0.96728
thorax -9.54939 0.434157 -4.36952
lowerneck 0.59547 0.164135 -2.94254
upperneck -16.5651 0.161212 -1.82634
head -5.07824 0.542864 -0.101575
rclavicle -7.55382e-015 -1.74931e-014
rhumerus -45.2888 -8.59779 -88.1642
rradius 41.9791
rwrist -20.1124
rhand -29.3648 17.8469
rfingers 7.12502
rthumb -2.70406 -12.1157
lclavicle -7.55382e-015 -1.74931e-014
lhumerus -55.1853 14.2626 83.7069
lradius 60.605
lwrist 26.8014
lhand -15.5286 -11.258
lfingers 7.12502
lthumb 10.6549 18.4518
rfemur -43.6345 4.16706 25.9602
rtibia 66.5482
rfoot -28.6504 -3.77418
rtoes -14.2586
lfemur -43.9665 -4.93832 -15.6461
ltibia 76.6355
lfoot -34.642 7.78203
ltoes -17.4118
48
root -16.678 16.1356 0.0997039 -39.6329 83.8246 -414.423
lowerback 30.4998 -0.978049 5.15368
upperback 6.00166 0.767757 -0.974916
thorax -9.90446 0.416557 -4.43132
lowerneck 0.692991 0.221728 -2.89836
upperneck -16.5519 0.23309 -1.85086
head -5.09079 0.575431 -0.119874
rclavicle 1.98785e-015 -3.97569e-016
rhumerus -41.484 -7.05344 -89.7313
rradius 43.3466
rwrist -18.4074
rhand -30.3994 18.483
rfingers 7.12502
rthumb -3.70314 -11.4646
lclavicle 1.98785e-015 -3.97569e-016
lhumerus -50.5865 12.2803 85.4208
lradius 62.2391
lwrist 26.3353
lhand -15.4024 -10.8847
lfingers 7.12502
lthumb 10.7767 18.8189
rfemur -43.0269 4.16486 25.9494
rtibia 67.0967
rfoot -29.3038 -3.67548
rtoes -14.4571
lfemur -42.9574 -4.99702 -15.8799
ltibia 76.8238
lfoot -35.7503 8.0827
ltoes -17.5122
49
root -16.5326 16.0878 0.100474 -38.4978 83.7369 -412.998
lowerback 30.1456 -0.926975 5.23497
upperback 5.6226 0.807594 -0.986294
thorax -10.1615 0.400102 -4.50349
lowerneck 0.844466 0.296202 -2.89412
upperneck -16.3913 0.321829 -1.8577
head -5.0671 0.611666 -0.126225
rclavicle 7.95139e-016 -3.97569e-015
rhumerus -37.1108 -5.36814 -91.141
rradius 43.968
rwrist -16.1418
rhand -31.3746 19.5093
rfingers 7.12502
rthumb -4.64485 -10.4198
lclavicle 7.95139e-016 -3.97569e-015
lhumerus -45.9602 9.73129 86.8751
lradius 63.3612
lwrist 25.7981
lhand -15.339 -11.2563
lfingers 7.12502
lthumb 10.8378 18.444
rfemur -42.2524 4.12849 25.9491
rtibia 67.3797
rfoot -29.843 -3.6183
rtoes -14.7903
lfemur -41.867 -5.01692 -16.1132
ltibia 76.8461
lfoot -36.6979 8.30461
ltoes -17.5325
50
root -16.3813 16.0635 0.101343 -37.4225 83.6405 -411.62
lowerback 29.5975 -0.883616 5.35998
upperback 5.30318 0.840156 -1.01017
thorax -10.2516 0.386766 -4.60621
lowerneck 0.885798 0.373266 -2.89297
upperneck -16.0002 0.414624 -1.88268
head -4.95361 0.643671 -0.136375
rclavicle -1.63003e-014 -2.10712e-014
rhumerus -32.4933 -3.42192 -92.4024
rradius 44.6152
rwrist -13.6888
rhand -32.2335 20.3815
rfingers 7.12502
rthumb -5.47422 -9.52783
lclavicle -1.63003e-014 -2.10712e-014
lhumerus -41.274 6.64312 87.9229
lradius 64.3559
lwrist 25.282
lhand -15.4295 -12.002
lfingers 7.12502
lthumb 10.7505 17.7029
rfemur -41.2472 4.10942 25.9444
rtibia 67.3542
rfoot -30.3451 -3.5739
rtoes -15.4104
lfemur -40.628 -4.94174 -16.3523
ltibia 76.6257
lfoot -37.432 8.51733
ltoes -17.6795
51
root -16.2258 16.061 0.102905 -36.2301 83.5442 -410.131
lowerback 28.939 -0.833078 5.50895
upperback 4.99099 0.878078 -1.06599
thorax -10.273 0.376895 -4.75767
lowerneck 0.852356 0.454739 -2.85309
upperneck -15.3771 0.516831 -1.90775
head -4.75617 0.670524 -0.151743
rclavicle 5.96354e-016 7.15625e-015
rhumerus -27.9382 -1.39134 -93.5106
rradius 45.4954
rwrist -11.316
rhand -32.8268 21.1724
rfingers 7.12502
rthumb -6.04703 -8.72129
lclavicle 5.96354e-016 7.15625e-015
lhumerus -36.5606 3.30926 88.3702
lradius 65.6803
lwrist 24.9308
lhand -15.4689 -12.4601
lfingers 7.12502
lthumb 10.7125 17.2468
rfemur -40.0491 4.04365 25.927
rtibia 66.9924
rfoot -30.6561 -3.56847
rtoes -16.0595
lfemur -39.2644 -4.78914 -16.5938
ltibia 76.1447
lfoot -37.984 8.63808
ltoes -17.7726
52
root -16.0652 16.0813 0.10616 -35.0056 83.4479 -408.596
lowerback 28.2559 -0.776571 5.6091
upperback 4.67258 0.911626 -1.08598
thorax -10.2871 0.367279 -4.83685
lowerneck 0.886636 0.557751 -2.92236
upperneck -14.2901 0.648897 -1.89025
head -4.92014 0.705392 -0.168758
rclavicle 1.09332e-014 -1.94809e-014
rhumerus -23.4171 0.814524 -94.3654
rradius 46.4585
rwrist -9.15034
rhand -33.1757 21.8514
rfingers 7.12502
rthumb -6.38382 -8.03238
lclavicle 1.09332e-014 -1.94809e-014
lhumerus -31.8276 0.46396 88.3521
lradius 67.1482
lwrist 24.2862
lhand -15.3836 -12.7583
lfingers 7.12502
lthumb 10.7948 16.9443
rfemur -38.6565 3.96263 25.8986
rtibia 66.3216
rfoot -30.7919 -3.55611
rtoes -16.8297
lfemur -37.7732 -4.54203 -16.8275
ltibia 75.398
lfoot -38.3495 8.68036
ltoes -17.8904
53
root -15.8946 16.1238 0.110077 -34.0544 83.3446 -407.354
lowerback 27.6181 -0.733596 5.77331
upperback 4.26447 0.944365 -1.12602
thorax -10.4215 0.345783 -4.97832
lowerneck 1.14686 0.668348 -2.97243
upperneck -13.5647 0.771514 -1.86762
head -4.70335 0.740295 -0.151811
rclavicle -1.39149e-015 2.22639e-014
rhumerus -19.1766 3.3134 -95.0386
rradius 47.7913
rwrist -7.52849
rhand -33.3124 22.3441
rfingers 7.12502
rthumb -6.51581 -7.53567
lclavicle -1.39149e-015 2.22639e-014
lhumerus -26.9835 -1.89109 87.9315
lradius 68.2118
lwrist 23.5259
lhand -15.2498 -13.2056
lfingers 7.12502
lthumb 10.9238 16.4903
rfemur -37.1 3.88726 25.873
rtibia 65.3574
rfoot -30.8442 -3.50382
rtoes -17.5099
lfemur -36.1664 -4.28746 -17.0196
ltibia 74.3754
lfoot -38.4067 8.72689
ltoes -18.0462
54
root -15.7105 16.1833 0.114866 -33.0749 83.2577 -406.095
lowerback 27.0593 -0.674526 5.90401
upperback 3.71301 0.993221 -1.13696
thorax -10.7567 0.318628 -5.07741
lowerneck 1.747 0.792908 -3.03956
upperneck -12.7755 0.88781 -1.87927
head -4.53405 0.772137 -0.144761
rclavicle 1.59028e-014 1.98785e-015
rhumerus -15.5476 5.95233 -95.4379
rradius 49.7503
rwrist -6.29371
rhand -33.176 22.6269
rfingers 7.12502
rthumb -6.38416 -7.25687
lclavicle 1.59028e-014 1.98785e-015
lhumerus -22.3645 -4.03328 87.2748
lradius 69.1629
lwrist 23.0208
lhand -15.1319 -13.7261
lfingers 7.12502
lthumb 11.0376 15.9637
rfemur -35.4116 3.77921 25.8246
rtibia 64.163
rfoot -30.8007 -3.51181
rtoes -18.4555
lfemur -34.4337 -4.01608 -17.2087
ltibia 73.0822
lfoot -38.1778 8.67762
ltoes -18.1208
55
root -15.5055 16.2654 0.12256 -32.1541 83.156 -404.817
lowerback 26.542 -0.613348 6.03417
upperback 3.13173 1.04774 -1.1637
thorax -11.1443 0.290301 -5.19783
lowerneck 2.54132 0.929155 -3.15853
upperneck -12.0041 1.01826 -1.78985
head -4.41366 0.809709 -0.0970847
rclavicle -9.93923e-016 2.22639e-014
rhumerus -12.2735 8.63848 -95.6708
rradius 52.0367
rwrist -5.21906
rhand -32.9478 22.8949
rfingers 7.12502
rthumb -6.16382 -6.99546
lclavicle -9.93923e-016 2.22639e-014
lhumerus -18.2915 -5.90705 86.433
lradius 70.7282
lwrist 22.7628
lhand -15.0695 -14.0033
lfingers 7.12502
lthumb 11.0977 15.6833
rfemur -33.448 3.72812 25.7622
rtibia 62.7269
rfoot -30.625 -3.47041
rtoes -19.0336
lfemur -32.4081 -3.72627 -17.3965
ltibia 71.4919
lfoot -37.6267 8.66867
ltoes -18.2061
56
root -15.2812 16.3679 0.131383 -31.2106 83.052 -403.533
lowerback 25.9384 -0.538739 6.15978
upperback 2.54857 1.1158 -1.18309
thorax -11.4846 0.27018 -5.30891
lowerneck 3.21503 1.0646 -3.31394
upperneck -11.1071 1.1566 -1.66947
head -4.22661 0.849657 -0.0322418
rclavicle 3.97569e-015 6.75868e-015
rhumerus -9.12549 11.4656 -95.6287
rradius 54.1505
rwrist -4.3319
rhand -32.8164 23.5568
rfingers 7.12502
rthumb -6.037 -6.33724
lclavicle 3.97569e-015 6.75868e-015
lhumerus -14.6686 -7.52926 85.5262
lradius 72.6943
lwrist 22.7567
lhand -15.1303 -14.3149
lfingers 7.12502
lthumb 11.0391 15.3748
rfemur -31.3252 3.72534 25.6693
rtibia 61.0414
rfoot -30.2305 -3.41243
rtoes -19.5157
lfemur -30.2207 -3.44715 -17.5781
ltibia 69.6099
lfoot -36.7555 8.66651
ltoes -18.2232
57
root -15.0422 16.4883 0.142584 -30.4327 82.9651 -402.416
lowerback 25.2443 -0.465226 6.29915
upperback 2.02592 1.18058 -1.22806
thorax -11.7029 0.255139 -5.45135
lowerneck 3.57837 1.17554 -3.434
upperneck -10.0716 1.286 -1.53
head -3.93122 0.881496 0.0349515
rclavicle 7.55382e-015 -7.55382e-015
rhumerus -6.05618 14.209 -95.3837
rradius 56.0564
rwrist -3.28691
rhand -32.8842 24.5681
rfingers 7.12502
rthumb -6.10244 -5.32396
lclavicle 7.55382e-015 -7.55382e-015
lhumerus -10.9657 -9.05581 84.464
lradius 74.3733
lwrist 22.976
lhand -15.2112 -14.8852
lfingers 7.12502
lthumb 10.961 14.8086
rfemur -29.0464 3.77057 25.5654
rtibia 59.0988
rfoot -29.4394 -3.38928
rtoes -19.7807
lfemur -27.9176 -3.16089 -17.7191
ltibia 67.5003
lfoot -35.684 8.53054
ltoes -18.0163
58
root -14.7957 16.6197 0.155553 -29.4448 82.867 -401.085
lowerback 24.494 -0.374088 6.35868
upperback 1.54421 1.24696 -1.25631
thorax -11.841 0.251297 -5.52526
lowerneck 3.76952 1.30608 -3.62389
upperneck -8.90539 1.45274 -1.34485
head -3.56301 0.931325 0.12835
rclavicle -1.96797e-014 1.59028e-014
rhumerus -3.08081 16.9072 -94.8753
rradius 57.9799
rwrist -2.17451
rhand -32.9981 25.7057
rfingers 7.12502
rthumb -6.21236 -4.1832
lclavicle -1.96797e-014 1.59028e-014
lhumerus -7.30271 -10.4821 83.3001
lradius 75.9661
lwrist 23.2626
lhand -15.4998 -15.4785
lfingers 7.12502
lthumb 10.6827 14.23
rfemur -26.6647 3.84512 25.4289
rtibia 56.95
rfoot -28.2866 -3.31308
rtoes -19.7737
lfemur -25.5627 -2.7816 -17.8615
ltibia 65.2304
lfoot -34.2757 8.37218
ltoes -17.9577
59
root -14.5491 16.7564 0.168627 -28.7152 82.7755 -400.021
lowerback 23.7842 -0.280596 6.46067
upperback 1.01405 1.33109 -1.30146
thorax -12.0491 0.248195 -5.65081
lowerneck 4.07981 1.42009 -3.80425
upperneck -7.69959 1.59667 -1.10503
head -3.21101 0.968366 0.236725
rclavicle 3.97569e-015 -2.62396e-014
rhumerus -0.624602 19.2935 -94.2918
rradius 60.2809
rwrist -0.908486
rhand -33.1199 26.5641
rfingers 7.12502
rthumb -6.33001 -3.32136
lclavicle 3.97569e-015 -2.62396e-014
lhumerus -4.06735 -11.8366 82.1092
lradius 77.7384
lwrist 23.3026
lhand -15.8422 -15.9296
lfingers 7.12502
lthumb 10.3524 13.7955
rfemur -24.2179 3.90019 25.2961
rtibia 54.6201
rfoot -26.8275 -3.21554
rtoes -19.4421
lfemur -23.2511 -2.33398 -17.9355
ltibia 62.8959
lfoot -32.5154 8.06013
ltoes -17.8759
